# xmcd
#
# Track frame offsets: 
#        150
#        16406
#        30608
#        46533
#        59614
#        70280
#        86872
#        104060
#        121322
#        134771
#
# Disc length: 2020 seconds
#
# Revision: 0
# Processed by: cddbd v1.5.2PL0 Copyright (c) Steve Scherf et al.
# Submitted via: ExactAudioCopyFreeDBPlugin 1.0
#
DISCID=9007e20a
DTITLE=James Deane - James Deane - 1157
DYEAR=2015
DGENRE=Pop;Blues
TTITLE0=Pretending
TTITLE1=Alibi
TTITLE2=Everyone but me
TTITLE3=Never wanted anything so bad
TTITLE4=Bitterness (down the line)
TTITLE5=When your raincloud starts to rain
TTITLE6=Hurt and pain
TTITLE7=Wolf at your door
TTITLE8=Shame, shame, shame
TTITLE9=It's not the Blues
EXTD=
EXTT0=
EXTT1=
EXTT2=
EXTT3=
EXTT4=
EXTT5=
EXTT6=
EXTT7=
EXTT8=
EXTT9=
PLAYORDER=
